<svg xmlns="http://www.w3.org/2000/svg" viewBox="0 0 677.6 112.91"><defs><style>.cls-1{fill:#f1f2f2;}.cls-2{fill:#d1d3d4;}.cls-3{fill:#d6d6d6;}.cls-4{font-size:77px;fill:#f2f2f2;font-family:OpenSans, Open Sans;}.cls-5{fill:#e0e0e0;font-family:OpenSans-Light, Open Sans;font-weight:300;}</style></defs><title>logo</title><g id="Layer_2" data-name="Layer 2"><g id="Layer_1-2" data-name="Layer 1"><g id="chat"><path class="cls-1" d="M158.07,14.11V53.63A14.12,14.12,0,0,1,144,67.75H48a2.81,2.81,0,0,1-2.83-2.83V14.11A14.12,14.12,0,0,1,59.28,0H144A14.11,14.11,0,0,1,158.07,14.11Z"/><path class="cls-2" d="M118.55,36.7V67.75H48a2.81,2.81,0,0,1-2.83-2.83v-48H98.8A19.77,19.77,0,0,1,118.55,36.7Z"/><path class="cls-3" d="M98.8,22.58H14.11A14.13,14.13,0,0,0,0,36.7v73.39a2.82,2.82,0,0,0,1.6,2.54,2.79,2.79,0,0,0,1.22.28,2.85,2.85,0,0,0,1.77-.62l25.13-20.1A8.5,8.5,0,0,1,35,90.33H98.8a14.13,14.13,0,0,0,14.11-14.12V36.7A14.13,14.13,0,0,0,98.8,22.58Z"/><path class="cls-1" d="M87.5,50.81H25.4a2.83,2.83,0,0,1,0-5.65H87.5a2.83,2.83,0,1,1,0,5.65Z"/><path class="cls-1" d="M87.5,67.75H25.4a2.83,2.83,0,0,1,0-5.65H87.5a2.83,2.83,0,1,1,0,5.65Z"/></g><text class="cls-4" transform="translate(191.06 76.89)">social<tspan class="cls-5" x="201.67" y="0">network</tspan></text></g></g></svg>