<svg xmlns="http://www.w3.org/2000/svg" viewBox="0 0 674.23 112.91"><defs><style>.cls-1{fill:#f1f2f2;}.cls-2{fill:#d1d3d4;}.cls-3{fill:#d6d6d6;}.cls-4{fill:#f2f2f2;}.cls-5{fill:#e0e0e0;}</style></defs><title>logo_1</title><g id="Layer_2" data-name="Layer 2"><g id="Layer_1-2" data-name="Layer 1"><g id="chat"><path class="cls-1" d="M158.07,14.11V53.63A14.12,14.12,0,0,1,144,67.75H48a2.81,2.81,0,0,1-2.83-2.83V14.11A14.12,14.12,0,0,1,59.28,0H144A14.11,14.11,0,0,1,158.07,14.11Z"/><path class="cls-2" d="M118.55,36.7V67.75H48a2.81,2.81,0,0,1-2.83-2.83v-48H98.8A19.77,19.77,0,0,1,118.55,36.7Z"/><path class="cls-3" d="M98.8,22.58H14.11A14.13,14.13,0,0,0,0,36.7v73.39a2.82,2.82,0,0,0,1.6,2.54,2.79,2.79,0,0,0,1.22.28,2.85,2.85,0,0,0,1.77-.62l25.13-20.1A8.5,8.5,0,0,1,35,90.33H98.8a14.13,14.13,0,0,0,14.11-14.12V36.7A14.13,14.13,0,0,0,98.8,22.58Z"/><path class="cls-1" d="M87.5,50.81H25.4a2.83,2.83,0,0,1,0-5.65H87.5a2.83,2.83,0,1,1,0,5.65Z"/><path class="cls-1" d="M87.5,67.75H25.4a2.83,2.83,0,0,1,0-5.65H87.5a2.83,2.83,0,1,1,0,5.65Z"/></g><path class="cls-4" d="M224.26,65.65A10.32,10.32,0,0,1,220,74.52q-4.28,3.12-12,3.12-8.19,0-12.78-2.59V69.26a31.21,31.21,0,0,0,6.37,2.37,27,27,0,0,0,6.56.86q4.89,0,7.52-1.56a5.38,5.38,0,0,0,.55-8.87q-2.08-1.71-8.14-4a44.58,44.58,0,0,1-8.18-3.74,11.23,11.23,0,0,1-3.61-3.63,9.45,9.45,0,0,1-1.18-4.85,9.24,9.24,0,0,1,4.09-7.95c2.74-2,6.48-2.92,11.25-2.92a33,33,0,0,1,13,2.71l-2.22,5.08a29.81,29.81,0,0,0-11.24-2.56q-4.44,0-6.7,1.39A4.31,4.31,0,0,0,201,45.38a4.66,4.66,0,0,0,.84,2.82,8.41,8.41,0,0,0,2.73,2.22,59.33,59.33,0,0,0,7.22,3q7.33,2.67,9.9,5.37A9.5,9.5,0,0,1,224.26,65.65Z"/><path class="cls-4" d="M270,56.25Q270,66.33,264.9,72t-14,5.65a18.52,18.52,0,0,1-9.81-2.59,17.1,17.1,0,0,1-6.62-7.44,25.89,25.89,0,0,1-2.33-11.36q0-10.08,5-15.7t14-5.62q8.66,0,13.74,5.76T270,56.25Zm-31.4,0c0,5.26,1.06,9.28,3.16,12s5.2,4.14,9.29,4.14,7.19-1.37,9.31-4.12,3.17-6.76,3.17-12-1.06-9.22-3.17-11.94-5.25-4.08-9.39-4.08-7.16,1.35-9.24,4S238.58,50.94,238.58,56.25Z"/><path class="cls-4" d="M297.39,77.64q-9,0-13.86-5.5t-4.9-15.59q0-10.33,5-16t14.19-5.64a28.57,28.57,0,0,1,5.94.64,19.42,19.42,0,0,1,4.66,1.51l-1.91,5.3A30.39,30.39,0,0,0,302,41a20.33,20.33,0,0,0-4.32-.54q-12.56,0-12.56,16,0,7.59,3.07,11.65t9.08,4.06A27.74,27.74,0,0,0,307.8,70V75.5A22.51,22.51,0,0,1,297.39,77.64Z"/><path class="cls-4" d="M317.05,24.52a4.15,4.15,0,0,1,1.05-3.14,3.89,3.89,0,0,1,5.23,0,4,4,0,0,1,1.09,3.12,4.13,4.13,0,0,1-1.09,3.14,3.83,3.83,0,0,1-5.23,0A4.24,4.24,0,0,1,317.05,24.52Zm6.77,52.37h-6.24V35.68h6.24Z"/><path class="cls-4" d="M362.39,76.89,361.15,71h-.3a17.25,17.25,0,0,1-6.14,5.24,18.72,18.72,0,0,1-7.66,1.37q-6.12,0-9.6-3.15t-3.48-9q0-12.48,20-13.08l7-.23V49.63q0-4.85-2.09-7.16c-1.39-1.54-3.62-2.31-6.67-2.31a27.14,27.14,0,0,0-11.66,3.16l-1.92-4.78A29.17,29.17,0,0,1,345.27,36a28.73,28.73,0,0,1,7.27-.94q7.38,0,10.93,3.27T367,48.77V76.89Zm-14.1-4.4q5.83,0,9.16-3.19t3.33-8.95V56.63l-6.24.26q-7.46.27-10.74,2.31a7,7,0,0,0-3.29,6.37,6.43,6.43,0,0,0,2.05,5.16A8.55,8.55,0,0,0,348.29,72.49Z"/><path class="cls-4" d="M386.12,76.89h-6.24V18.39h6.24Z"/><path class="cls-5" d="M428.08,76.89V50.39q0-6.16-2.6-9t-8-2.8q-7.33,0-10.74,3.7t-3.4,12V76.89h-3.72V36h3.16l.71,5.61h.23q4-6.41,14.17-6.4,13.9,0,13.91,14.93V76.89Z"/><path class="cls-5" d="M461.5,77.64q-8.91,0-13.89-5.49t-5-15.37q0-9.78,4.81-15.66a15.87,15.87,0,0,1,13-5.89,14,14,0,0,1,11.39,5Q476,45.31,476,54v3H446.54q.07,8.43,3.93,12.86t11,4.44a33.9,33.9,0,0,0,6.15-.49,37.42,37.42,0,0,0,6.71-2.1v3.38a30,30,0,0,1-6.39,2A35.85,35.85,0,0,1,461.5,77.64Zm-1.09-39.1a12.25,12.25,0,0,0-9.47,3.89q-3.57,3.9-4.18,11.23H472q0-7.11-3.08-11.11A10.19,10.19,0,0,0,460.41,38.54Z"/><path class="cls-5" d="M498.05,74.34a27.9,27.9,0,0,0,6.16-.61v3a19.73,19.73,0,0,1-6.24.9q-5.42,0-8-2.89c-1.72-1.93-2.57-5-2.57-9.1V39.26h-6.06V37.08l6.06-1.7,1.88-9.25h1.91V36h12v3.24h-12V65.12q0,4.71,1.66,7A6,6,0,0,0,498.05,74.34Z"/><path class="cls-5" d="M545.72,76.89l-9-27.33q-.85-2.79-2.22-8.16h-.22l-.79,2.78-1.69,5.45-9.1,27.26h-3.69L507.37,36h4l6.54,23.69c1.53,5.86,2.53,10.18,3,12.93h.22q2.22-8.79,3.24-11.69L532.79,36h3.38l8,24.86q2.7,8.83,3.31,11.69h.22q.3-2.44,3-13.09L557,36h3.76L549.63,76.89Z"/><path class="cls-5" d="M602.53,56.4q0,10-4.85,15.62T584.3,77.64a17.33,17.33,0,0,1-9.48-2.59,16.66,16.66,0,0,1-6.28-7.44,27.18,27.18,0,0,1-2.18-11.21q0-10,4.85-15.58t13.31-5.59q8.43,0,13.22,5.66T602.53,56.4Zm-32.26,0q0,8.43,3.71,13.14t10.47,4.72q6.76,0,10.47-4.72t3.7-13.14q0-8.46-3.74-13.12t-10.51-4.66q-6.76,0-10.43,4.64T570.27,56.4Z"/><path class="cls-5" d="M629.94,35.23a32,32,0,0,1,5.56.53l-.71,3.57a22.1,22.1,0,0,0-5.3-.64,10.28,10.28,0,0,0-8.57,4.44,18,18,0,0,0-3.35,11.2V76.89h-3.72V36H617l.37,7.37h.27A17.19,17.19,0,0,1,623,37.06,12.57,12.57,0,0,1,629.94,35.23Z"/><path class="cls-5" d="M647.46,59,668.33,36h4.51L656.75,53.47l17.48,23.42h-4.48L654.23,56.25l-6.7,6.09V76.89h-3.72V18.39h3.72V47.72L647.27,59Z"/></g></g></svg>